<?xml version="1.0" standalone="no"?>
<!DOCTYPE svg PUBLIC "-//W3C//DTD SVG 20010904//EN"
 "http://www.w3.org/TR/2001/REC-SVG-20010904/DTD/svg10.dtd">
<svg version="1.0" xmlns="http://www.w3.org/2000/svg"
 width="924.000000pt" height="924.000000pt" viewBox="0 0 924.000000 924.000000"
 preserveAspectRatio="xMidYMid meet">
<metadata>
Created by potrace 1.14, written by Peter Selinger 2001-2017
</metadata>
<g transform="translate(0.000000,924.000000) scale(0.100000,-0.100000)"
fill="#000000" stroke="none">
<path d="M5788 9145 c-2 -2 -56 -6 -120 -9 -131 -6 -140 -7 -150 -21 -5 -6 -8
-5 -8 3 0 7 -4 11 -9 8 -5 -3 -26 -8 -47 -11 -45 -6 -48 -7 -129 -25 -33 -8
-63 -13 -67 -12 -5 1 -8 -1 -8 -5 0 -5 -10 -9 -23 -10 -12 0 -33 -5 -47 -11
-14 -5 -27 -9 -30 -9 -3 0 -24 -10 -47 -22 -24 -12 -43 -19 -43 -15 0 3 -7 -2
-16 -10 -8 -9 -21 -16 -29 -16 -7 0 -15 -4 -17 -9 -1 -5 -10 -11 -18 -13 -8
-2 -17 -5 -20 -8 -3 -3 -25 -19 -50 -35 -25 -16 -47 -32 -50 -35 -3 -3 -32
-25 -65 -50 -33 -24 -69 -53 -81 -65 -11 -11 -46 -44 -77 -73 -32 -29 -57 -56
-57 -58 0 -3 -16 -21 -35 -40 -19 -18 -35 -38 -35 -44 0 -5 -4 -10 -10 -10 -5
0 -22 -19 -37 -42 -16 -24 -31 -47 -36 -53 -35 -46 -107 -187 -107 -209 0 -4
-7 -14 -15 -23 -8 -8 -13 -19 -10 -24 4 -5 2 -9 -2 -9 -5 0 -16 -17 -25 -37
-9 -21 -24 -56 -34 -78 -9 -22 -18 -45 -19 -50 -2 -6 -12 -32 -24 -57 -11 -26
-21 -51 -21 -56 0 -4 -12 -37 -26 -73 -14 -35 -28 -75 -30 -88 -3 -13 -10 -34
-16 -45 -6 -12 -11 -22 -10 -23 1 -2 2 -4 1 -5 0 -2 -2 -10 -4 -18 -13 -64
-17 -89 -18 -117 -1 -18 -4 -33 -7 -33 -12 0 -18 -259 -8 -320 4 -19 10 -52
14 -73 4 -21 11 -40 15 -43 5 -3 9 -14 9 -25 0 -10 5 -19 12 -19 6 0 8 -3 5
-7 -4 -3 -2 -12 3 -18 8 -9 -9 -12 -68 -13 -42 0 -95 -3 -117 -7 -22 -3 -49
-7 -60 -9 -11 -2 -20 -4 -20 -5 0 -2 -20 -5 -44 -7 -25 -3 -53 -10 -62 -15
-25 -13 -25 -13 -27 34 -2 51 -5 68 -15 84 -5 7 0 16 12 22 11 6 25 17 33 23
21 21 107 60 121 55 6 -2 17 2 24 8 6 7 23 11 37 10 16 -2 26 2 26 9 0 13 -8
16 -67 16 -43 1 -118 -10 -170 -26 -13 -3 -23 -2 -24 2 0 5 -2 18 -4 29 -2 11
-7 40 -10 65 -6 42 -19 95 -32 130 -3 8 -7 20 -8 26 -2 7 -12 43 -23 80 -19
63 -30 105 -38 144 -2 8 -4 29 -6 47 -1 17 -5 30 -9 27 -4 -2 -10 2 -12 8 -4
10 -6 10 -6 0 -1 -7 -12 -25 -26 -40 -14 -15 -25 -32 -25 -39 0 -7 -4 -13 -8
-13 -4 0 -16 -15 -27 -32 -10 -18 -25 -39 -32 -46 -7 -8 -26 -30 -41 -50 -15
-20 -34 -44 -42 -52 -77 -83 -100 -110 -102 -122 -2 -7 -5 -15 -8 -18 -14 -14
-68 -120 -74 -145 -2 -5 -9 -30 -16 -55 -8 -25 -14 -47 -15 -50 -3 -13 -18
-148 -20 -172 -1 -33 -7 -39 -23 -29 -7 4 -14 36 -15 77 -2 38 -7 77 -12 87
-4 10 -5 21 -2 24 4 3 1 15 -5 27 -7 11 -13 29 -15 40 -2 10 -32 75 -68 144
-82 159 -98 212 -98 330 0 34 -2 62 -4 62 -4 0 -14 -8 -45 -37 -16 -15 -77
-89 -112 -138 -11 -14 -46 -53 -78 -87 -32 -33 -55 -64 -52 -69 3 -5 0 -9 -5
-9 -6 0 -14 -18 -17 -40 -4 -22 -10 -40 -13 -40 -4 0 -7 -8 -7 -17 -1 -10 -4
-36 -9 -58 -4 -22 -8 -59 -10 -83 -1 -23 -4 -45 -8 -48 -3 -3 -3 -12 -1 -19 4
-9 -5 -11 -38 -7 -59 8 -236 7 -273 0 -47 -10 -90 -25 -116 -39 -13 -7 -28
-13 -33 -14 -12 0 -21 -25 -9 -25 5 0 14 5 20 11 12 12 139 17 183 7 59 -14
86 -21 95 -27 6 -3 15 -6 20 -7 15 -2 109 -47 115 -54 3 -4 20 -13 38 -21 17
-8 32 -17 32 -21 0 -5 6 -8 14 -8 7 0 19 -7 26 -15 7 -9 15 -13 18 -11 5 5 32
-19 32 -28 0 -3 -17 -6 -37 -6 -21 0 -58 -5 -83 -11 -25 -6 -56 -13 -70 -15
-30 -6 -129 -33 -150 -41 -8 -3 -19 -7 -25 -8 -44 -11 -171 -72 -202 -97 -7
-6 -13 -7 -13 -4 0 4 -9 -2 -20 -12 -11 -10 -33 -25 -48 -33 -15 -8 -32 -18
-38 -24 -6 -5 -37 -30 -67 -55 -31 -25 -56 -48 -57 -52 0 -8 -22 -37 -48 -64
-7 -7 -13 -17 -14 -21 0 -4 -5 -19 -9 -33 -5 -14 -10 -29 -11 -35 -3 -11 -50
-59 -71 -72 -7 -4 -27 -28 -43 -53 -43 -63 -50 -81 -17 -40 45 55 125 134 163
160 19 13 37 27 40 30 13 14 99 70 108 70 6 0 12 3 14 8 7 17 205 105 218 97
6 -3 10 -2 10 3 0 8 54 25 63 20 1 -1 12 4 25 11 12 6 22 8 22 3 0 -5 -13 -15
-28 -21 -15 -6 -44 -26 -64 -44 -20 -18 -46 -39 -57 -47 -12 -8 -21 -18 -21
-23 0 -4 -11 -20 -25 -35 -14 -15 -31 -39 -38 -54 -6 -16 -15 -28 -18 -28 -7
0 -21 -53 -33 -130 l-6 -35 22 40 c26 45 101 125 117 125 6 0 11 4 11 8 0 4
22 21 50 37 27 17 50 33 50 38 0 4 5 7 10 7 6 0 29 9 53 19 65 29 76 32 152
36 l70 5 -33 -17 c-18 -9 -41 -26 -51 -39 -10 -13 -20 -22 -22 -20 -2 2 -10
-2 -17 -10 -7 -8 -10 -14 -7 -14 3 0 -6 -12 -20 -27 -14 -15 -25 -33 -25 -39
0 -6 -6 -17 -14 -23 -8 -6 -16 -23 -19 -36 -4 -24 -3 -24 28 7 41 43 96 84
107 81 4 -2 8 1 8 7 0 5 21 19 48 31 26 12 65 29 87 40 37 17 110 40 145 45 8
2 26 5 40 9 43 10 181 12 229 3 25 -5 58 -15 73 -23 14 -8 31 -15 37 -15 5 0
22 -11 37 -25 36 -33 53 -32 101 10 23 19 46 35 52 35 6 0 11 5 11 10 0 6 7
10 15 10 8 0 15 4 15 9 0 13 131 69 187 79 68 12 179 8 228 -8 22 -7 59 -26
83 -41 50 -33 52 -34 52 -14 0 8 -4 15 -10 15 -5 0 -10 5 -10 11 0 13 -56 69
-88 87 -12 6 -29 12 -39 12 -27 0 2 24 30 25 13 1 29 5 37 10 9 6 11 4 5 -5
-6 -9 -4 -11 6 -5 15 10 209 14 209 6 0 -4 24 -7 53 -7 132 -4 165 -16 137
-49 -14 -17 -20 -142 -9 -203 23 -121 134 -274 258 -353 51 -32 131 -53 117
-30 -22 34 -23 186 -3 210 8 9 25 35 37 59 13 23 27 42 32 42 4 0 8 6 8 13 0
7 9 19 20 27 11 8 20 20 20 26 0 7 7 14 15 18 9 3 15 0 15 -9 0 -8 5 -15 11
-15 5 0 8 -4 5 -9 -3 -4 4 -17 15 -27 19 -17 20 -17 13 2 -5 10 -16 34 -27 52
-17 28 -17 32 -3 32 9 0 19 7 22 15 4 8 10 15 14 15 13 0 109 -99 138 -144 46
-68 87 -161 91 -202 0 -8 6 -12 12 -9 6 4 9 31 8 63 -2 36 1 57 9 60 7 2 12
-6 12 -20 0 -14 3 -28 7 -31 3 -4 8 -21 10 -39 8 -75 37 -37 35 47 -1 72 -9
155 -16 162 -3 3 -6 13 -6 20 0 27 -59 138 -92 174 -65 70 -67 73 -25 53 20
-10 37 -21 37 -26 0 -4 7 -8 15 -8 8 0 15 -4 15 -9 0 -5 6 -11 14 -14 20 -8
13 25 -17 88 -26 54 -27 54 33 95 19 13 40 29 46 35 6 5 28 19 50 30 21 11 41
23 44 26 4 6 74 39 93 44 4 2 9 4 12 5 3 1 10 3 15 4 6 0 15 8 20 16 5 8 10
12 10 8 0 -4 21 0 48 8 51 16 86 25 117 29 11 2 20 4 20 5 0 3 38 10 80 15 22
3 51 7 65 10 38 8 147 17 220 19 119 3 276 -38 337 -89 7 -5 24 -19 39 -30 45
-34 200 -194 242 -250 34 -46 51 -73 46 -77 -2 -3 2 -11 11 -18 8 -7 15 -23
15 -36 0 -12 5 -26 10 -29 6 -3 10 -16 10 -29 0 -12 3 -26 8 -30 4 -4 8 -12 8
-17 1 -5 3 -11 4 -14 1 -3 4 -9 5 -15 1 -5 3 -11 5 -12 1 -2 3 -11 5 -21 2
-10 7 -26 11 -35 10 -24 16 -76 18 -149 0 -35 5 -63 9 -63 5 0 5 -5 2 -11 -11
-17 -13 -59 -3 -65 4 -3 6 -9 3 -14 -3 -5 -8 -26 -10 -47 -9 -70 -16 -108 -26
-148 -6 -22 -13 -51 -15 -65 -2 -14 -9 -45 -14 -70 -16 -71 -21 -93 -26 -125
-3 -16 -8 -37 -11 -45 -4 -8 -8 -26 -9 -40 -1 -14 -6 -43 -10 -65 -14 -71 -9
-214 10 -300 9 -40 66 -220 74 -235 5 -8 8 -23 6 -32 -1 -10 2 -18 7 -18 5 0
9 -12 9 -26 0 -23 -2 -25 -17 -13 -9 8 -19 13 -22 12 -3 0 -26 8 -50 19 -115
52 -173 62 -346 61 -124 -1 -175 -4 -190 -12 -5 -3 -17 -6 -25 -7 -8 0 -35 -7
-60 -14 -25 -7 -48 -14 -52 -16 -5 -1 -10 -3 -13 -4 -3 -1 -8 -3 -12 -4 -38
-10 -96 -31 -198 -71 -66 -26 -124 -48 -130 -49 -5 -1 -16 -5 -22 -9 -7 -5
-13 -5 -13 0 0 4 -4 3 -8 -3 -7 -10 -96 -47 -108 -44 -4 1 -10 -2 -13 -7 -3
-5 -44 -28 -91 -52 -105 -52 -99 -49 -245 -145 -66 -43 -121 -82 -123 -87 -2
-5 -9 -9 -15 -9 -7 0 -25 -11 -40 -25 -15 -14 -27 -22 -27 -18 0 4 -4 3 -8 -3
-4 -6 -27 -24 -52 -41 -25 -17 -57 -42 -72 -56 -16 -15 -28 -23 -28 -20 0 4
-6 -1 -13 -10 -10 -14 -76 -36 -152 -51 -5 -1 -14 -4 -20 -8 -9 -5 -66 -19
-80 -20 -2 0 -25 -6 -50 -13 -25 -8 -45 -10 -45 -5 0 5 9 12 20 15 11 3 20 10
20 15 0 5 9 12 21 15 11 4 18 9 15 12 -2 3 4 15 15 26 23 25 6 42 -25 24 -12
-6 -24 -12 -28 -13 -5 -1 -9 -2 -10 -4 -9 -6 -52 -12 -112 -15 -74 -3 -138 12
-220 51 -27 13 -56 24 -63 24 -7 0 -13 4 -13 8 0 5 -12 15 -27 22 -28 14 -164
101 -173 110 -9 10 -295 151 -311 154 -7 1 -23 7 -34 12 -62 33 -199 48 -285
32 -25 -5 -57 -11 -72 -13 -40 -7 -172 -57 -179 -68 -3 -5 -9 -8 -13 -8 -14 2
-86 -32 -86 -40 0 -5 -9 -9 -19 -9 -11 0 -26 -6 -33 -14 -8 -7 -41 -26 -74
-41 -32 -16 -71 -37 -86 -47 -16 -11 -28 -16 -28 -11 0 4 -4 3 -8 -3 -7 -10
-47 -32 -257 -137 -130 -65 -225 -103 -225 -90 0 3 -7 0 -15 -7 -8 -6 -19 -9
-25 -5 -5 3 -10 1 -10 -6 0 -7 -3 -10 -6 -6 -3 3 -18 1 -32 -4 -32 -12 -100
-18 -277 -23 -158 -5 -241 -13 -275 -26 -3 -1 -8 -2 -12 -1 -5 0 -8 -2 -8 -7
0 -4 -13 -13 -29 -20 -16 -7 -41 -24 -55 -37 -14 -13 -26 -22 -26 -20 0 3 -9
-3 -19 -12 -11 -9 -17 -21 -14 -26 3 -5 8 -5 12 0 11 16 65 37 101 39 l34 2
-29 -15 c-31 -17 -43 -26 -79 -60 -13 -12 -27 -19 -30 -16 -3 4 -6 1 -6 -5 0
-6 -14 -26 -31 -44 -49 -53 -95 -162 -79 -188 6 -9 13 -4 24 18 26 50 166 182
166 156 0 -3 -8 -18 -19 -32 -10 -15 -22 -37 -25 -49 -4 -13 -12 -23 -17 -23
-5 0 -8 -3 -8 -7 1 -5 0 -11 -1 -15 -1 -5 -3 -11 -5 -15 -1 -5 -4 -15 -8 -23
-13 -33 -27 -97 -27 -127 0 -58 22 -121 46 -132 13 -5 30 -24 39 -41 21 -40
28 -33 29 30 1 27 6 54 12 60 8 8 11 7 11 -2 1 -30 14 -110 23 -132 5 -13 6
-27 3 -30 -4 -3 -2 -6 3 -6 5 0 11 -12 12 -26 1 -15 6 -32 12 -39 5 -6 7 -15
3 -18 -3 -4 -1 -7 6 -7 7 0 9 -5 6 -10 -4 -6 0 -21 8 -34 14 -21 12 -27 -38
-107 -29 -46 -59 -91 -67 -99 -13 -16 -72 -111 -73 -120 -1 -3 -10 -25 -22
-50 -34 -73 -73 -172 -73 -187 0 -7 -5 -13 -11 -13 -5 0 -8 -4 -5 -8 3 -5 -1
-19 -7 -33 -7 -13 -12 -34 -11 -47 1 -12 -2 -22 -7 -22 -4 0 -8 -8 -7 -17 0
-27 -12 -73 -24 -97 -6 -12 -11 -22 -10 -23 4 -8 -12 -64 -19 -69 -5 -3 -7
-10 -4 -15 4 -5 3 -15 -2 -21 -4 -7 -8 -17 -10 -23 -21 -94 -24 -166 -6 -183
7 -7 13 -22 13 -33 0 -10 5 -19 10 -19 6 0 9 -4 8 -9 -5 -14 76 -131 95 -137
9 -3 17 -10 17 -15 0 -17 124 -134 179 -169 28 -19 51 -37 51 -41 0 -4 11 -10
25 -13 14 -4 25 -10 25 -15 0 -5 17 -20 38 -32 20 -13 42 -28 49 -34 35 -30
41 -33 47 -28 3 4 6 2 6 -4 0 -5 18 -18 40 -29 22 -10 40 -23 40 -27 0 -5 4
-6 9 -2 5 3 12 1 16 -5 11 -18 167 -88 220 -98 52 -10 185 -3 185 10 0 3 8 5
17 4 20 -3 108 27 128 44 10 8 19 5 37 -13 14 -14 34 -28 46 -31 12 -4 22 -12
22 -17 0 -5 8 -9 18 -9 10 0 26 -6 37 -14 11 -8 39 -19 63 -26 23 -7 42 -16
42 -19 0 -3 12 -7 26 -8 15 0 36 -6 48 -11 21 -10 54 -22 59 -21 1 1 20 -6 42
-15 22 -8 54 -17 70 -20 17 -2 30 -5 30 -6 0 -2 26 -7 91 -16 114 -16 459 -6
534 16 17 5 28 5 25 0 -5 -7 93 -111 142 -151 28 -23 143 -99 150 -99 3 0 17
-8 31 -19 26 -17 70 -33 83 -28 3 1 12 -3 20 -10 40 -33 196 -48 274 -26 27 8
56 15 63 15 6 1 12 5 12 10 0 4 5 8 12 8 11 0 213 98 233 113 55 42 103 75
118 80 9 3 17 11 17 17 0 5 9 10 20 10 11 0 20 3 20 8 0 4 23 21 51 37 28 17
68 40 88 53 20 13 44 25 54 29 9 3 17 9 17 13 0 5 9 12 20 15 11 3 26 12 32
19 7 6 46 33 87 58 l74 46 49 -19 c26 -10 48 -16 48 -14 0 3 8 1 18 -4 10 -5
38 -13 63 -17 73 -11 354 -7 354 6 0 1 18 4 40 5 22 2 40 4 40 5 0 2 14 4 30
5 17 2 30 4 30 5 0 1 9 3 19 5 28 5 191 43 219 50 4 2 8 3 10 5 2 1 20 6 50
13 6 1 18 6 25 11 7 4 16 5 19 2 3 -3 12 -1 20 5 7 6 13 8 13 4 0 -4 6 -2 14
4 8 7 26 14 40 17 23 4 174 70 216 95 32 19 85 42 93 41 4 -1 7 1 7 6 0 4 14
13 31 21 26 12 35 11 67 -3 60 -27 185 -10 437 59 55 15 105 28 110 29 6 1 15
5 22 9 6 4 23 8 37 9 14 1 26 5 26 8 0 3 12 7 26 8 15 1 32 6 38 11 6 6 23 11
36 13 45 7 135 57 181 100 46 43 98 118 82 118 -4 0 -1 5 7 10 8 5 15 13 16
17 0 4 4 26 9 48 13 56 12 55 15 58 5 7 22 117 25 172 2 22 4 40 5 40 1 0 3
36 4 81 1 44 5 84 7 90 7 13 3 324 -5 409 -15 149 -22 348 -12 364 4 6 4 11
-1 11 -4 0 -8 71 -8 158 0 86 -4 162 -8 169 -4 6 -3 14 3 18 6 3 7 11 4 17 -4
6 -8 36 -10 67 -2 31 -6 85 -9 121 -3 36 -8 124 -10 195 -5 147 -11 214 -18
222 -3 3 -2 16 3 29 5 13 6 24 2 24 -4 0 -7 10 -8 23 0 12 -4 38 -8 57 -23
115 -25 624 -2 745 2 11 1 24 -2 30 -7 12 -9 185 -2 185 3 0 5 21 6 48 2 104
26 301 38 321 2 3 7 31 11 61 3 30 8 69 10 85 3 17 7 50 10 75 8 82 18 156 28
210 1 8 5 20 8 25 3 6 5 25 5 43 -1 17 1 32 4 32 3 0 7 14 8 32 2 17 6 36 11
42 5 6 8 18 9 26 0 8 10 49 21 90 26 88 26 91 34 110 3 8 13 51 23 95 10 44
19 87 22 95 2 8 4 25 5 38 0 12 4 22 7 22 3 0 7 12 8 28 3 40 9 64 26 117 9
26 17 58 18 71 1 13 5 24 9 24 3 0 6 6 7 13 0 6 3 19 5 27 22 82 32 110 39
110 4 0 5 7 2 15 -4 8 -1 15 5 15 6 0 8 7 5 15 -4 8 -1 15 7 15 7 0 10 3 6 6
-5 6 20 88 44 139 38 86 40 133 8 223 -21 57 -51 140 -65 177 -4 11 -8 26 -10
33 -1 8 -6 21 -10 30 -4 9 -8 22 -9 28 -2 7 -14 35 -29 63 -14 28 -22 51 -18
51 4 0 2 4 -3 8 -6 4 -17 21 -25 37 -8 17 -21 36 -28 43 -7 8 -10 18 -7 23 4
5 2 9 -3 9 -8 0 -39 56 -40 74 0 5 -4 12 -9 15 -9 7 -43 77 -42 87 0 4 -3 10
-8 13 -4 3 -21 31 -37 61 -16 30 -32 57 -35 60 -7 6 -29 40 -38 58 -8 19 -189
200 -241 242 -24 19 -53 43 -65 53 -12 11 -39 33 -60 50 -22 18 -49 40 -60 50
-12 10 -35 28 -50 40 -15 12 -40 32 -55 45 -36 30 -229 162 -237 162 -4 0 -21
10 -38 22 -18 13 -33 21 -35 20 -1 -2 -24 6 -50 18 -26 12 -56 26 -67 30 -28
12 -110 38 -137 44 -48 10 -64 15 -93 26 -16 6 -30 11 -30 10 0 0 -20 2 -45 7
-25 4 -48 6 -52 5 -5 -1 -8 2 -8 6 0 4 -17 9 -37 11 -69 6 -98 9 -98 11 0 2
-32 4 -184 14 -52 4 -98 9 -102 12 -5 3 -9 1 -9 -5 0 -7 -8 -7 -24 -1 -13 5
-26 7 -28 5z"/>
<path d="M4768 6218 c7 -7 12 -18 12 -24 0 -7 5 -25 12 -41 6 -15 10 -33 9
-40 -1 -6 2 -14 7 -17 7 -4 8 33 2 42 -2 1 -3 6 -4 11 0 5 -4 13 -8 17 -5 4
-8 20 -8 36 0 20 -5 28 -17 28 -13 0 -14 -3 -5 -12z"/>
</g>
</svg>
